<svg id="Lager_1" data-name="Lager 1" xmlns="http://www.w3.org/2000/svg" viewBox="0 0 300 40"><defs><style>.cls-1{fill:red;}.cls-2{fill:#fff;}</style></defs><title>Rityta 1</title><path class="cls-1" d="M13.91,21.56H25V35.45a30.42,30.42,0,0,1-10,1.55q-6,0-9.21-3.45T2.61,23.69q0-6.24,3.56-9.71t10-3.47a22.47,22.47,0,0,1,4.59.45,19.66,19.66,0,0,1,3.76,1.17l-2.2,5.46a13.74,13.74,0,0,0-6.12-1.37,5.81,5.81,0,0,0-4.71,2A8.58,8.58,0,0,0,9.8,23.87a8.65,8.65,0,0,0,1.51,5.51,5.22,5.22,0,0,0,4.34,1.89,12.75,12.75,0,0,0,2.86-.3v-4h-4.6Z"/><path class="cls-1" d="M46.1,36.65l-1.27-4.83H36.46l-1.31,4.83H27.5l8.41-25.88H45.2l8.52,25.88ZM43.39,26.11l-1.12-4.23c-.25-.94-.57-2.16-.94-3.65s-.61-2.56-.73-3.21c-.11.6-.31,1.59-.63,3s-1,4.09-2.07,8.13Z"/><path class="cls-1" d="M67.73,36.65,62.46,18.09H62.3q.38,4.74.37,7.37V36.65H56.5V10.88h9.27l5.38,18.3h.14l5.27-18.3h9.29V36.65H79.46V25.35c0-.59,0-1.24,0-2s.1-2.47.24-5.27h-.16l-5.2,18.53Z"/><path class="cls-1" d="M106.71,36.65H91.41V10.88h15.3v5.59H98.37v4.05h7.72v5.59H98.37V31h8.34Z"/><path class="cls-2" d="M118.19,27.27v9.38h-7V10.88h8.45q10.5,0,10.51,7.61,0,4.49-4.38,6.93l7.51,11.23h-7.89L120,27.27Zm0-5.23h1.3q3.65,0,3.65-3.23,0-2.65-3.58-2.66h-1.37Z"/><path class="cls-2" d="M157.75,36.65h-7V26.14h-8.09V36.65h-7V10.88h7v9.55h8.09V10.88h7Z"/><path class="cls-2" d="M187.44,23.73q0,6.51-3.19,9.89T174.9,37q-6.06,0-9.3-3.4t-3.23-9.91q0-6.44,3.21-9.83t9.36-3.39q6.15,0,9.32,3.37T187.44,23.73ZM167.64,5.78a2.62,2.62,0,0,1,.81-2.05A3.13,3.13,0,0,1,170.64,3a3.17,3.17,0,0,1,2.21.75,2.63,2.63,0,0,1,.82,2,2.59,2.59,0,0,1-.82,2,3.66,3.66,0,0,1-4.4,0A2.58,2.58,0,0,1,167.64,5.78Zm2.06,18q0,7.47,5.2,7.47a4.46,4.46,0,0,0,3.92-1.81c.86-1.21,1.28-3.1,1.28-5.66s-.43-4.48-1.29-5.7a4.44,4.44,0,0,0-3.87-1.85Q169.71,16.18,169.7,23.73Zm6.38-17.95a2.62,2.62,0,0,1,.81-2.05,3.73,3.73,0,0,1,4.46,0,2.67,2.67,0,0,1,.82,2,2.59,2.59,0,0,1-.82,2,3.73,3.73,0,0,1-4.46,0A2.59,2.59,0,0,1,176.08,5.78Z"/><path class="cls-2" d="M199.05,27.27v9.38h-7V10.88h8.45q10.5,0,10.5,7.61c0,3-1.45,5.3-4.37,6.93l7.51,11.23h-7.9l-5.46-9.38Zm0-5.23h1.31Q204,22,204,18.81q0-2.65-3.58-2.66h-1.38Z"/><path class="cls-2" d="M241.07,36.65h-9.14l-9.41-18.16h-.16c.22,2.86.34,5,.34,6.54V36.65h-6.17V10.88h9.09L235,28.79h.11q-.26-3.9-.25-6.26V10.88h6.21Z"/><path class="cls-2" d="M262.45,36.65l-1.27-4.83h-8.37l-1.31,4.83h-7.65l8.41-25.88h9.29l8.52,25.88Zm-2.71-10.54-1.12-4.23c-.25-.94-.57-2.16-.94-3.65s-.61-2.56-.73-3.21c-.11.6-.31,1.59-.63,3s-1,4.09-2.07,8.13Z"/><path class="cls-2" d="M297.39,36.65h-9.13l-9.41-18.16h-.16Q279,22.78,279,25V36.65h-6.17V10.88H282l9.38,17.91h.1q-.24-3.9-.24-6.26V10.88h6.2Z"/></svg>